<?xml version="1.0" encoding="utf-8"?>
<!-- Generator: Adobe Illustrator 28.1.0, SVG Export Plug-In . SVG Version: 6.00 Build 0)  -->
<svg version="1.1" id="Layer_1" xmlns="http://www.w3.org/2000/svg" xmlns:xlink="http://www.w3.org/1999/xlink" x="0px" y="0px"
	 viewBox="0 0 841.89 595.28" style="enable-background:new 0 0 841.89 595.28;" xml:space="preserve">
<style type="text/css">
	.st0{fill:#006853;}
	.st1{fill:#74B959;}
</style>
<g>
	<g>
		<path class="st0" d="M385.55,341.65c-0.51,0-1.07-0.01-1.67-0.04c-0.6-0.02-1.2-0.06-1.8-0.11c-0.6-0.05-1.19-0.11-1.78-0.18
			c-0.59-0.07-1.12-0.17-1.61-0.29v-24.64c0.49-0.12,1.03-0.22,1.61-0.29c0.59-0.07,1.18-0.13,1.78-0.18
			c0.6-0.05,1.19-0.08,1.78-0.11c0.59-0.02,1.14-0.04,1.65-0.04c1.47,0,2.84,0.11,4.13,0.33c1.28,0.22,2.4,0.59,3.34,1.12
			c0.94,0.53,1.68,1.22,2.22,2.07c0.54,0.86,0.81,1.91,0.81,3.15c0,1.39-0.33,2.54-0.99,3.43c-0.66,0.89-1.54,1.56-2.64,2
			c1.49,0.44,2.68,1.14,3.56,2.09c0.88,0.95,1.32,2.3,1.32,4.03c0,2.54-0.94,4.46-2.81,5.74
			C392.58,341.01,389.61,341.65,385.55,341.65z M382.22,326.73h3.74c0.88,0,1.71-0.06,2.49-0.18c0.78-0.12,1.46-0.34,2.04-0.66
			c0.57-0.32,1.03-0.73,1.36-1.25c0.33-0.51,0.5-1.16,0.5-1.94c0-0.73-0.17-1.35-0.51-1.85c-0.34-0.5-0.81-0.9-1.41-1.21
			s-1.3-0.53-2.11-0.68s-1.66-0.22-2.57-0.22c-0.9,0-1.61,0.01-2.13,0.04c-0.51,0.02-0.98,0.06-1.39,0.11V326.73z M382.22,329.59
			v8.95c0.27,0.03,0.59,0.05,0.95,0.07c0.32,0.02,0.69,0.04,1.12,0.05c0.43,0.01,0.92,0.02,1.49,0.02c1.05,0,2.05-0.07,2.99-0.2
			c0.94-0.13,1.77-0.37,2.48-0.71c0.71-0.34,1.28-0.82,1.71-1.43c0.43-0.61,0.64-1.38,0.64-2.31c0-0.83-0.16-1.53-0.48-2.11
			c-0.32-0.57-0.78-1.03-1.38-1.38c-0.6-0.34-1.31-0.59-2.15-0.73c-0.83-0.15-1.76-0.22-2.79-0.22H382.22z"/>
		<path class="st0" d="M406.38,321.89c1.37,0,2.52,0.18,3.47,0.53c0.94,0.36,1.7,0.86,2.27,1.5c0.57,0.65,0.98,1.42,1.23,2.31
			c0.24,0.89,0.37,1.88,0.37,2.95v11.92c-0.29,0.05-0.7,0.12-1.23,0.2c-0.53,0.09-1.12,0.17-1.78,0.24s-1.38,0.14-2.15,0.2
			c-0.77,0.06-1.53,0.09-2.29,0.09c-1.08,0-2.07-0.11-2.97-0.33c-0.9-0.22-1.69-0.57-2.35-1.04s-1.17-1.11-1.54-1.89
			s-0.55-1.72-0.55-2.82c0-1.05,0.21-1.96,0.64-2.71c0.43-0.76,1.01-1.37,1.74-1.83c0.73-0.46,1.59-0.81,2.57-1.03
			c0.98-0.22,2-0.33,3.08-0.33c0.34,0,0.7,0.02,1.06,0.05s0.72,0.09,1.04,0.15c0.33,0.06,0.62,0.12,0.86,0.17
			c0.24,0.05,0.42,0.09,0.51,0.11v-0.95c0-0.56-0.06-1.12-0.18-1.67c-0.12-0.55-0.34-1.04-0.66-1.47s-0.75-0.77-1.3-1.03
			c-0.55-0.26-1.27-0.38-2.15-0.38c-1.12,0-2.11,0.08-2.95,0.24c-0.84,0.16-1.47,0.32-1.89,0.5l-0.4-2.82
			c0.44-0.2,1.17-0.39,2.2-0.57C404.07,321.98,405.19,321.89,406.38,321.89z M406.68,338.97c0.81,0,1.52-0.02,2.15-0.05
			c0.62-0.04,1.14-0.1,1.56-0.2v-5.68c-0.24-0.12-0.64-0.23-1.19-0.31c-0.55-0.08-1.22-0.13-2-0.13c-0.51,0-1.06,0.04-1.63,0.11
			c-0.57,0.07-1.1,0.23-1.58,0.46c-0.48,0.23-0.87,0.55-1.19,0.95c-0.32,0.4-0.48,0.94-0.48,1.6c0,1.22,0.39,2.07,1.17,2.55
			C404.27,338.74,405.33,338.97,406.68,338.97z"/>
		<path class="st0" d="M417.53,341.43v-27.87l3.41-0.59v9.75c0.64-0.24,1.31-0.43,2.03-0.57s1.44-0.2,2.15-0.2
			c1.52,0,2.77,0.21,3.78,0.64c1,0.43,1.8,1.03,2.4,1.8c0.6,0.77,1.02,1.69,1.26,2.77c0.24,1.08,0.37,2.26,0.37,3.56v10.71h-3.41
			v-9.97c0-1.17-0.08-2.18-0.24-3.01s-0.42-1.5-0.79-2.02c-0.37-0.51-0.86-0.89-1.47-1.12c-0.61-0.23-1.37-0.35-2.27-0.35
			c-0.37,0-0.75,0.03-1.14,0.07c-0.39,0.05-0.76,0.1-1.12,0.17c-0.35,0.06-0.67,0.13-0.95,0.2c-0.28,0.07-0.48,0.13-0.6,0.18v15.84
			H417.53z"/>
		<path class="st0" d="M438.32,318.92c-0.61,0-1.13-0.2-1.56-0.6s-0.64-0.95-0.64-1.63s0.21-1.23,0.64-1.63s0.95-0.61,1.56-0.61
			c0.61,0,1.13,0.2,1.56,0.61c0.43,0.4,0.64,0.95,0.64,1.63s-0.21,1.23-0.64,1.63C439.45,318.71,438.93,318.92,438.32,318.92z
			 M440.05,341.43h-3.41v-19.07h3.41V341.43z"/>
		<path class="st0" d="M450.24,321.89c1.37,0,2.52,0.18,3.46,0.53c0.94,0.36,1.7,0.86,2.27,1.5c0.57,0.65,0.98,1.42,1.23,2.31
			s0.37,1.88,0.37,2.95v11.92c-0.29,0.05-0.7,0.12-1.23,0.2c-0.53,0.09-1.12,0.17-1.78,0.24s-1.38,0.14-2.15,0.2
			c-0.77,0.06-1.53,0.09-2.29,0.09c-1.08,0-2.07-0.11-2.97-0.33s-1.69-0.57-2.35-1.04s-1.17-1.11-1.54-1.89
			c-0.37-0.78-0.55-1.72-0.55-2.82c0-1.05,0.21-1.96,0.64-2.71c0.43-0.76,1.01-1.37,1.74-1.83c0.73-0.46,1.59-0.81,2.57-1.03
			c0.98-0.22,2-0.33,3.08-0.33c0.34,0,0.7,0.02,1.06,0.05c0.37,0.04,0.72,0.09,1.04,0.15c0.33,0.06,0.62,0.12,0.86,0.17
			c0.24,0.05,0.42,0.09,0.51,0.11v-0.95c0-0.56-0.06-1.12-0.18-1.67c-0.12-0.55-0.34-1.04-0.66-1.47c-0.32-0.43-0.75-0.77-1.3-1.03
			c-0.55-0.26-1.27-0.38-2.15-0.38c-1.12,0-2.11,0.08-2.95,0.24c-0.84,0.16-1.47,0.32-1.89,0.5l-0.4-2.82
			c0.44-0.2,1.17-0.39,2.2-0.57C447.93,321.98,449.04,321.89,450.24,321.89z M450.54,338.97c0.81,0,1.52-0.02,2.15-0.05
			c0.62-0.04,1.14-0.1,1.56-0.2v-5.68c-0.25-0.12-0.64-0.23-1.19-0.31c-0.55-0.08-1.22-0.13-2-0.13c-0.51,0-1.06,0.04-1.63,0.11
			c-0.58,0.07-1.1,0.23-1.58,0.46s-0.87,0.55-1.19,0.95c-0.32,0.4-0.48,0.94-0.48,1.6c0,1.22,0.39,2.07,1.17,2.55
			C448.13,338.74,449.19,338.97,450.54,338.97z"/>
	</g>
</g>
<path class="st0" d="M459.96,292.89 M459.96,303.65"/>
<g>
	<path class="st0" d="M594.95,281.31c5.09-3.41,8.55-8.09,8.55-14.53c0-8.58-6.73-14.39-15.98-14.39H567v50.92
		c4.16,0.22,7.39,0.23,10.65,0v-15.38c2.65-0.56,5.31-1.26,7.86-2.13c3.54,5.93,6.47,11.4,9.17,17.52c3.47,0.22,8.8,0.23,12.02,0
		C603.18,295.55,599.04,287.92,594.95,281.31z M577.66,263.07h8.02c5.11,0,7.25,1.46,6.86,5.1c-0.55,5.13-8.78,8.07-14.88,9.5
		V263.07z"/>
	<path class="st0" d="M544.07,252.18c-3.32-0.29-7.63-0.28-11.16,0.03l-19.09,51.08c3.8,0.26,7.93,0.25,11.51-0.03l2.87-7.84
		c6.11-1.77,14.66-1.78,20.86-0.02l2.92,7.91c3.74,0.19,7.86,0.21,11.45-0.04L544.07,252.18z M532.17,284.6l6.42-17.56l6.49,17.55
		C540.86,284.08,536.37,284.08,532.17,284.6z"/>
	<path class="st0" d="M510.66,303.3l-0.15-51.02c-3.42-0.24-7.03-0.21-10.8,0.03l0.08,28.06c-6.53-10.84-14.94-21.06-22.45-27.79
		l0-0.2c-3.55-0.23-7.12-0.23-10.71,0.03l0.15,51.02c3.55,0.32,7.12,0.33,10.71-0.03l-0.1-35.62c9.43,10.24,18.15,23.58,22.46,35.55
		l0.01,0C503.62,303.53,507.24,303.54,510.66,303.3z"/>
	<path class="st0" d="M425.12,303.28v-50.89l33.89,0c0.36,3.32,0.37,6.88,0,10.69l-23.21,0v8.45h19.62c0.27,2.97,0.27,6.73,0,9.95
		h-19.62v11.12h24.76c0.36,3.32,0.37,6.88,0,10.69H425.12z"/>
	<path class="st0" d="M401.79,303.97c9.19,0,17.76-4.53,17.76-14.73c0-9.73-6.48-12.43-13.64-16.01
		c-3.51-1.76-13.44-5.47-13.44-8.51c0-2.5,2.9-3.11,6.55-3.11c4.26,0,9.52,1.01,12.97,2.43c1.62-2.43,3.04-5.27,3.85-8.71
		c-4.66-2.23-11.35-3.65-19.12-3.65c-9.12,0-15.47,4.46-15.47,13.44c0,9.93,11.82,13.98,16.89,16.28c5.74,2.63,10.4,4.12,10.4,8.38
		c0,3.65-5.27,3.58-7.77,3.58c-5.27,0-12.56-1.42-18.31-4.05c-1.62,2.63-3.24,5.67-4.26,8.98
		C384.5,302.35,393.89,303.97,401.79,303.97z"/>
</g>
<g>
	<g>
		<path class="st0" d="M235.45,298.1c0.31,4.25,1.06,8.37,2.19,12.33c3.55,1.77,6.82,4.13,9.71,7.02
			c6.44,6.47,10.25,14.89,10.79,23.97c3.28,2.66,6.84,4.99,10.64,6.93v-4.68C268.77,322.28,254.76,304.17,235.45,298.1z"/>
		<path class="st0" d="M237.85,275.76c-1.01,3.37-1.73,6.86-2.15,10.45c2.89,0.73,5.73,1.69,8.5,2.86
			c7.02,2.98,13.33,7.26,18.75,12.7c5.42,5.45,9.68,11.78,12.65,18.84c3.07,7.3,4.63,15.06,4.63,23.06v9.15
			c3.43,0.95,6.98,1.61,10.62,1.95v-11.1C290.84,310.81,268.27,283.25,237.85,275.76z"/>
		<path class="st0" d="M305.71,307.83c-4.62-10.97-11.23-20.82-19.64-29.27c-8.42-8.46-18.22-15.1-29.14-19.73
			c-2.86-1.22-5.77-2.28-8.72-3.19c-2.27,2.92-4.28,6.06-6,9.37c34.61,9.29,60.09,41,60.09,78.69v11.1c3.64-0.34,7.19-1,10.62-1.95
			v-9.15C312.92,331.25,310.49,319.19,305.71,307.83z"/>
		<path class="st0" d="M301.68,262.87c-9.93-9.98-21.43-17.92-34.19-23.63c-3.76,2.04-7.28,4.46-10.51,7.21
			c39.35,14.6,67.4,52.62,67.4,97.23v4.68c3.77-1.93,7.32-4.25,10.59-6.9c-0.27-14.64-3.27-28.85-8.92-42.27
			C320.32,285.58,312.12,273.36,301.68,262.87z"/>
	</g>
	<g>
		<path class="st1" d="M345.81,317.46c2.88-2.9,6.16-5.25,9.71-7.02c1.13-3.96,1.87-8.09,2.19-12.33
			c-19.31,6.07-33.32,24.18-33.32,45.58v4.68c3.81-1.95,7.39-4.3,10.69-6.97C335.61,332.35,339.38,323.92,345.81,317.46z"/>
		<path class="st1" d="M312.92,343.68c0-8.01,1.56-15.77,4.63-23.06c2.97-7.06,7.23-13.39,12.65-18.84
			c5.42-5.45,11.73-9.72,18.75-12.7c2.77-1.18,5.61-2.13,8.5-2.86c-0.42-3.59-1.14-7.08-2.15-10.45
			c-30.42,7.48-52.99,35.05-52.99,67.92v11.1c3.64-0.34,7.19-1,10.62-1.95V343.68z"/>
		<path class="st1" d="M290.84,343.68c0-37.69,25.49-69.4,60.09-78.69c-1.72-3.31-3.73-6.45-6-9.37c-2.95,0.91-5.85,1.98-8.72,3.19
			c-10.92,4.64-20.72,11.28-29.14,19.73c-8.42,8.46-15.03,18.3-19.64,29.27c-4.78,11.36-7.21,23.43-7.21,35.86v9.15
			c3.43,0.95,6.98,1.61,10.62,1.95V343.68z"/>
		<path class="st1" d="M268.77,343.68c0-44.6,28.05-82.62,67.4-97.23c-3.23-2.75-6.75-5.17-10.51-7.21
			c-12.76,5.71-24.25,13.65-34.19,23.63c-10.44,10.49-18.65,22.71-24.38,36.32c-5.65,13.41-8.68,27.6-8.96,42.24
			c3.28,2.66,6.84,4.99,10.63,6.93V343.68z"/>
	</g>
</g>
</svg>
